<svg fill="none" height="28" viewBox="0 0 28 28" width="28" xmlns="http://www.w3.org/2000/svg"><path d="M14.078 11.975a.71.71 0 010-1.012l.256-.253a.73.73 0 011.024 0l2.047 2.025 2.048-2.025a.73.73 0 011.023 0l.256.253a.71.71 0 010 1.013L18.685 14l2.047 2.024a.71.71 0 010 1.013l-.256.253a.73.73 0 01-1.023 0l-2.048-2.025-2.047 2.025a.73.73 0 01-1.024 0l-.256-.253a.71.71 0 010-1.012L16.126 14l-2.048-2.025z" fill="#000"/><path clip-rule="evenodd" d="M8.061 5.5a2 2 0 00-1.541.725l-5.06 6.118a2 2 0 00-.066 2.464l5.093 6.883a2 2 0 001.607.81H25a2 2 0 002-2v-13a2 2 0 00-2-2H8.061zm0 2H25v13H8.094l-5.092-6.882L8.061 7.5z" fill="#000" fill-rule="evenodd"/></svg>